<?xml version="1.0" standalone="no"?>
<!DOCTYPE svg PUBLIC "-//W3C//DTD SVG 20010904//EN"
 "http://www.w3.org/TR/2001/REC-SVG-20010904/DTD/svg10.dtd">
<svg version="1.0" xmlns="http://www.w3.org/2000/svg"
 width="182.000000pt" height="103.000000pt" viewBox="0 0 182.000000 103.000000"
 preserveAspectRatio="xMidYMid meet">
<metadata>
Created by potrace 1.15, written by Peter Selinger 2001-2017
</metadata>
<g transform="translate(0.000000,103.000000) scale(0.100000,-0.100000)"
fill="#000000" stroke="none">
<path d="M165 1017 c-60 -23 -106 -59 -133 -105 l-27 -47 0 -346 0 -346 30
-49 c19 -30 49 -60 79 -79 l49 -30 719 -3 c490 -2 732 1 759 8 25 7 59 29 89
58 75 73 80 101 80 433 0 163 -5 299 -11 329 -15 69 -62 129 -128 163 l-55 27
-710 -1 c-519 0 -719 -4 -741 -12z m1489 -69 c51 -35 93 -98 101 -151 4 -23 5
-163 3 -312 -3 -241 -5 -274 -22 -305 -26 -49 -55 -79 -98 -101 -36 -18 -69
-19 -732 -19 -406 0 -705 4 -719 9 -38 15 -96 70 -118 112 -18 35 -19 61 -19
336 0 268 2 302 19 339 21 46 81 100 126 114 17 4 340 8 725 7 l695 -2 39 -27z"/>
<path d="M370 785 l0 -45 149 0 c83 0 152 -4 155 -8 2 -4 -67 -98 -155 -209
-158 -200 -159 -202 -159 -252 l0 -51 550 0 550 0 0 45 0 45 -469 0 c-259 0
-472 4 -475 8 -2 4 67 98 155 209 158 200 159 202 159 252 l0 51 -230 0 -230
0 0 -45z"/>
<path d="M1098 814 c-15 -8 -32 -23 -38 -34 -13 -24 -30 -17 -30 11 0 16 -7
19 -50 19 l-50 0 0 -215 0 -215 50 0 50 0 0 116 c0 63 5 135 11 160 13 50 57
94 95 94 21 0 24 4 24 40 0 45 -14 51 -62 24z"/>
<path d="M1220 605 l0 -225 56 0 55 0 -3 184 c-3 169 -5 187 -24 212 -11 16
-35 34 -52 41 l-32 13 0 -225z"/>
</g>
</svg>
